<svg xmlns="http://www.w3.org/2000/svg" height="20" width="20"><path d="M11.062 19q-1.666 0-3.135-.635-1.469-.636-2.562-1.73-1.094-1.093-1.73-2.562Q3 12.604 3 10.938q0-2.917 1.833-5.157Q6.667 3.542 9.583 3q-.354 2.062.24 3.917.594 1.854 2.031 3.291 1.396 1.396 3.292 1.98 1.896.583 3.854.229-.5 2.875-2.76 4.729Q13.979 19 11.062 19Zm0-1.5q1.834 0 3.417-.938 1.583-.937 2.396-2.541-1.729-.104-3.302-.823t-2.802-1.948Q9.521 10 8.812 8.438q-.708-1.563-.833-3.313-1.604.854-2.541 2.417Q4.5 9.104 4.5 10.938q0 2.729 1.917 4.645Q8.333 17.5 11.062 17.5Zm-.291-6.25Z"/></svg>